<?xml version="1.0" encoding="UTF-8"?>
<svg width="36px" height="26px" viewBox="0 0 36 26" version="1.1" xmlns="http://www.w3.org/2000/svg" xmlns:xlink="http://www.w3.org/1999/xlink">
    <!-- Generator: Sketch 53.2 (72643) - https://sketchapp.com -->
    <title>Group 4@2x</title>
    <desc>Created with Sketch.</desc>
    <g id="Page-1" stroke="none" stroke-width="1" fill="none" fill-rule="evenodd">
        <g id="iPhone-XS" transform="translate(-19.000000, -1896.000000)" stroke="#135DCD" stroke-width="1.68">
            <g id="Group-9" transform="translate(20.000000, 1889.000000)">
                <g id="Group-13" transform="translate(0.000000, 0.500000)">
                    <g id="Group-16">
                        <g id="Group-4" transform="translate(0.000000, 8.000000)">
                            <ellipse id="Oval-Copy-10" fill="#F6F9FC" cx="17.7" cy="11.7" rx="11.8" ry="11.7"></ellipse>
                            <path d="M2.97576894,9.30719876 C1.25185273,9.95426903 0.252908468,10.7262533 0.254682425,11.5569407 C0.259613539,13.8660232 7.99509935,15.7542941 17.5323736,15.7745116 L17.5323736,15.7745116 C27.0696478,15.7947292 34.7971387,13.9392375 34.7922076,11.630155 C34.7904581,10.8109218 33.8156325,10.0446578 32.1325006,9.39599483" id="Path" fill="#F6F9FC" stroke-linecap="round" transform="translate(17.523445, 12.540937) rotate(-15.000000) translate(-17.523445, -12.540937) "></path>
                            <path d="M25.5366791,6.58093622 C24.8154717,5.65155607 23.8796616,4.89457214 22.802579,4.38270617 C21.810937,3.91144446 20.6995467,3.64795471 19.5256349,3.64898597" id="Path" fill="#FFFFFF" stroke-linecap="round" stroke-dasharray="2.519999885559082" transform="translate(22.531157, 5.114961) rotate(-354.000000) translate(-22.531157, -5.114961) "></path>
                            <ellipse id="Oval-Copy-2" fill="#FFFFFF" cx="13.4857143" cy="9.19285714" rx="3.37142857" ry="3.34285714"></ellipse>
                        </g>
                    </g>
                </g>
            </g>
        </g>
    </g>
</svg>