<?xml version="1.0" encoding="UTF-8"?>
<svg width="30px" height="36px" viewBox="0 0 30 36" version="1.1" xmlns="http://www.w3.org/2000/svg" xmlns:xlink="http://www.w3.org/1999/xlink">
    <!-- Generator: Sketch 53.2 (72643) - https://sketchapp.com -->
    <title>Group 8@2x</title>
    <desc>Created with Sketch.</desc>
    <g id="Page-1" stroke="none" stroke-width="1" fill="none" fill-rule="evenodd">
        <g id="iPhone-XS--Copy" transform="translate(-23.000000, -2725.000000)" stroke="#135DCD">
            <g id="Group-9" transform="translate(23.000000, 2605.000000)">
                <g id="Group-13" transform="translate(0.000000, 0.500000)">
                    <g id="Group-14" transform="translate(1.500000, 89.500000)">
                        <g id="Group-8" transform="translate(0.000000, 31.000000)">
                            <ellipse id="Oval-Copy-25" stroke-width="1.68" cx="13.5" cy="13.2682927" rx="13.5" ry="13.2682927"></ellipse>
                            <rect id="Rectangle" stroke-width="1.68" fill="#FFFFFF" x="5.0625" y="9.12195122" width="16.875" height="24.8780488" rx="2.52"></rect>
                            <path d="M24.0393866,2.23466996 L25.5227626,6.45359477 C25.6555587,6.83128514 25.4570327,7.24511619 25.0793423,7.37791231 C24.909882,7.43749462 24.7243354,7.43203762 24.5586697,7.36259911 L23.3799585,6.86854432 C23.1709661,6.78094552 22.9354465,6.7815023 22.7268707,6.87008825 L21.6256186,7.33780993 C21.2955932,7.47797768 20.9144264,7.32406766 20.7742586,6.99404228 C20.7076076,6.83711219 20.705364,6.66026156 20.7680124,6.50169111 L22.4657038,2.20464013 C22.6361686,1.77317429 23.1241298,1.56159112 23.5555956,1.7320559 C23.7820942,1.8215416 23.9586072,2.00492235 24.0393866,2.23466996 Z" id="Triangle" stroke-width="1.26" fill="#FFFFFF" transform="translate(23.143298, 4.546011) rotate(-39.000000) translate(-23.143298, -4.546011) "></path>
                            <ellipse id="Oval" stroke-width="1.68" cx="13.5" cy="27.3658537" rx="2.53125" ry="2.48780488"></ellipse>
                        </g>
                    </g>
                </g>
            </g>
        </g>
    </g>
</svg>