<?xml version="1.0" encoding="UTF-8"?>
<svg width="45px" height="52px" viewBox="0 0 45 52" version="1.1" xmlns="http://www.w3.org/2000/svg" xmlns:xlink="http://www.w3.org/1999/xlink">
    <!-- Generator: Sketch 53.2 (72643) - https://sketchapp.com -->
    <title>Group 5</title>
    <desc>Created with Sketch.</desc>
    <g id="Page-1" stroke="none" stroke-width="1" fill="none" fill-rule="evenodd">
        <g id="1-page" transform="translate(-358.000000, -808.000000)" fill="#FFFFFF" stroke="#135DCD" stroke-width="2.8">
            <g id="Group-9" transform="translate(360.000000, 384.000000)">
                <g id="Group-13" transform="translate(0.000000, 189.000000)">
                    <g id="Group-15" transform="translate(0.000000, 222.000000)">
                        <g id="Group-5" transform="translate(0.000000, 15.000000)">
                            <path d="M15.6479686,9.51139516 L11.7773263,24.0927182 C11.5789494,24.8400352 12.0239534,25.6066716 12.7712704,25.8050485 C12.8884668,25.8361585 13.0092083,25.8519112 13.1304635,25.8519112 L18.703611,25.8519112 C19.4768097,25.8519112 20.103611,26.4787126 20.103611,27.2519112 C20.103611,27.3969781 20.0810643,27.5411635 20.0367781,27.6793052 L16.0186269,40.2130971 C15.7825837,40.9493849 16.1881122,41.7376149 16.9244,41.9736581 C17.5288572,42.1674383 18.18805,41.9302954 18.5305321,41.3958561 L31.1360292,21.725129 C31.5532058,21.0741299 31.3636552,20.2082024 30.7126561,19.7910258 C30.4872083,19.6465532 30.2250579,19.5697639 29.957291,19.5697639 L25.3591892,19.5697639 C24.5859906,19.5697639 23.9591892,18.9429626 23.9591892,18.1697639 C23.9591892,17.9501332 24.0108628,17.7335834 24.1100334,17.537617 L27.6701012,10.5027352 C28.0192264,9.81284553 27.7429821,8.97055759 27.0530924,8.62143245 C26.857126,8.5222618 26.6405762,8.47058824 26.4209454,8.47058824 L17.0011058,8.47058824 C16.3662443,8.47058824 15.8108528,8.89778465 15.6479686,9.51139516 Z" id="Path-3"></path>
                            <ellipse id="Oval-Copy-19" cx="4.24137931" cy="16.9411765" rx="4.24137931" ry="4.23529412"></ellipse>
                            <ellipse id="Oval-Copy-22" cx="28.2758621" cy="43.7647059" rx="4.24137931" ry="4.23529412"></ellipse>
                            <ellipse id="Oval-Copy-23" cx="36.7586207" cy="4.23529412" rx="4.24137931" ry="4.23529412"></ellipse>
                        </g>
                    </g>
                </g>
            </g>
        </g>
    </g>
</svg>