<?xml version="1.0" encoding="UTF-8"?>
<svg width="42px" height="39px" viewBox="0 0 42 39" version="1.1" xmlns="http://www.w3.org/2000/svg" xmlns:xlink="http://www.w3.org/1999/xlink">
    <!-- Generator: Sketch 53.2 (72643) - https://sketchapp.com -->
    <title>Group 5</title>
    <desc>Created with Sketch.</desc>
    <g id="Page-1" stroke="none" stroke-width="1" fill="none" fill-rule="evenodd">
        <g id="2-page" transform="translate(-369.000000, -815.000000)" stroke="#135DCD" stroke-width="2.8">
            <g id="Group-9" transform="translate(361.000000, 384.000000)">
                <g id="Group-13" transform="translate(0.000000, 189.000000)">
                    <g id="Group-15" transform="translate(5.000000, 222.000000)">
                        <g id="Group-5" transform="translate(0.000000, 22.000000)">
                            <path d="M27.3129612,5.65163356 L42.7156923,25.4184718 C44.141431,27.2481697 43.8139573,29.8872226 41.9842593,31.3129612 C41.2465168,31.8878255 40.3380026,32.2 39.4027311,32.2 L8.59726892,32.2 C6.27767298,32.2 4.39726892,30.3195959 4.39726892,28 C4.39726892,27.0647285 4.70944346,26.1562142 5.28430771,25.4184718 L20.6870388,5.65163356 C22.1127774,3.82193561 24.7518303,3.4944619 26.5815282,4.92020057 C26.8545462,5.13294184 27.1002199,5.3786156 27.3129612,5.65163356 Z" id="Triangle"></path>
                            <ellipse id="Oval-Copy-19" fill="#FFFFFF" cx="24" cy="4.2" rx="4.23529412" ry="4.2"></ellipse>
                            <ellipse id="Oval-Copy-22" fill="#FFFFFF" cx="32.4705882" cy="30.8" rx="4.23529412" ry="4.2"></ellipse>
                            <ellipse id="Oval-Copy-23" fill="#FFFFFF" cx="9.88235294" cy="21" rx="4.23529412" ry="4.2"></ellipse>
                        </g>
                    </g>
                </g>
            </g>
        </g>
    </g>
</svg>